<?xml version="1.0" encoding="utf-8"?>
<!-- Generator: Adobe Illustrator 26.3.1, SVG Export Plug-In . SVG Version: 6.00 Build 0)  -->
<svg version="1.1" xmlns="http://www.w3.org/2000/svg" xmlns:xlink="http://www.w3.org/1999/xlink" x="0px" y="0px"
	 viewBox="0 0 254 256" style="enable-background:new 0 0 254 256;" xml:space="preserve">
<style type="text/css">
	.st0{display:none;}
	.st1{display:inline;}
	.st2{display:inline;fill:#F26524;}
	.st3{display:inline;fill:none;}
	.st4{display:inline;fill:#005959;}
	.st5{fill:#005959;}
	.st6{fill:#F26524;}
</style>
<g id="Layer_1" class="st0">
	<path class="st1" d="M295.78,123.58"/>
	<path class="st2" d="M247.4,198.24c7.34-17.28,11.4-36.29,11.4-56.24h97.65c0.89-8.88,1.35-17.89,1.35-27s-0.46-18.12-1.35-27
		C343.74-38.7,242.5-139.64,114.8-153.4c-7.53-0.81-15.16-1.32-22.87-1.51h-1.25c-10.1,0-20.07,0.54-29.88,1.6
		c-136.65,14.72-243,129.27-243,268.4s106.35,253.68,243,268.4c7.62,0.82,15.33,1.33,23.13,1.51h0.99c1.88,0,3.76,0.04,5.64,0.09
		h24.24V142h90c0,24.86-10.07,47.36-26.36,63.64L357.8,385h76.37L247.4,198.24z M60.8,329.41c-106.56-13.28-189-104.17-189-214.32
		s82.44-201.04,189-214.32V329.41z M114.8,88V-99.32C212.5-87.14,289.94-9.7,302.12,88H114.8z"/>
</g>
<g id="Layer_2" class="st0">
	<path class="st3" d="M-614.52,788.65c-122.54,0-221.87-99.33-221.87-221.87s99.33-221.87,221.87-221.87s221.87,99.33,221.87,221.87
		"/>
	<path class="st4" d="M247.43,198.33c7.34-17.28,11.4-36.29,11.4-56.24h97.65c0.89-8.88,1.35-17.89,1.35-27
		c0-9.11-0.46-18.12-1.35-27c-12.71-126.7-113.95-227.64-241.65-241.4v54.08c97.7,12.18,175.14,89.62,187.32,187.32H114.83v54h90
		c0,24.86-10.07,47.36-26.36,63.64l179.36,179.36h76.37L247.43,198.33z"/>
	<path class="st4" d="M60.8,329.41c-106.55-13.28-189-104.17-189-214.32s82.45-201.04,189-214.32v-54.08
		c-136.65,14.72-243,129.27-243,268.4s106.35,253.68,243,268.4V329.41z"/>
</g>
<g id="Layer_6">
	<path class="st5" d="M100.13,216.31c-43.91-5.47-77.88-42.93-77.88-88.31c0-45.39,33.98-82.84,77.88-88.31V17.4
		C43.82,23.47,0,70.67,0,128s43.82,104.53,100.13,110.6V216.31z"/>
</g>
<g id="Layer_5">
	<path class="st5" d="M177.04,162.3c3.02-7.12,4.7-14.95,4.7-23.17h40.24c0.37-3.66,0.56-7.37,0.56-11.13
		c0-3.75-0.19-7.47-0.56-11.13c-5.24-52.21-46.96-93.8-99.58-99.47v22.28c40.26,5.02,72.17,36.93,77.19,77.19H122.4v22.25h37.09
		c0,10.24-4.15,19.52-10.86,26.22l73.91,73.91H254L177.04,162.3z"/>
</g>
<g id="Layer_4">
	<g>
		<path class="st6" d="M100.13,238.6v-22.28V39.69v0V17.4c4.04-0.44,8.15-0.66,12.31-0.66h0.52c3.18,0.08,6.32,0.29,9.42,0.62
			l0.01,99.51v22.21h-0.01v100.17h-9.99c-0.77-0.02-1.55-0.04-2.32-0.04h-0.41C106.45,239.15,103.27,238.94,100.13,238.6"/>
	</g>
</g>
</svg>
