<svg xmlns="http://www.w3.org/2000/svg" viewBox="0 0 1270.59 943.56"><defs><style>.cls-1{fill:#005959;}.cls-2{fill:#f26524;}</style></defs><g id="Layer_6" data-name="Layer 6"><path class="cls-1" d="M961.71,288.49a5.62,5.62,0,0,1,0-11.16v-1.41a7,7,0,0,0,0,14Z"/></g><g id="Layer_5" data-name="Layer 5"><path class="cls-1" d="M966.57,285.08a3.61,3.61,0,0,0,.3-1.47h2.54a6.15,6.15,0,0,0,0-1.4,7.07,7.07,0,0,0-6.29-6.29v1.41a5.63,5.63,0,0,1,4.88,4.88h-4.88v1.4h2.34a2.34,2.34,0,0,1-.68,1.66l4.67,4.67h2Z"/></g><g id="Layer_4" data-name="Layer 4"><path class="cls-2" d="M961.71,289.9V277.33h0v-1.41a6.79,6.79,0,0,1,.78,0h0a5.85,5.85,0,0,1,.59,0v7.69h0v6.33h-.8l-.61,0"/></g></svg>